# xmcd
#
# Track frame offsets:
#	150
#	17865
#	32515
#	45947
#	59497
#	79510
#	92987
#	111327
#	125777
#	144742
#	161777
#	179495
#	194145
#	207577
#	221130
#	241140
#	254617
#	272957
#	287407
#	306372
#
# Disc length: 4312 seconds
#
# Revision: 1
# Processed by: cddbd v1.5.1PL2 Copyright (c) Steve Scherf et al.
# Submitted via: audiograbber 1.83.01
#
DISCID=3e10d614
DTITLE=Top Hits Monthly Country - Thmc0406
DYEAR=2004
DGENRE=Karaoke
TTITLE0=Lonestar (Vocal) - Let's Be Us Again
TTITLE1=Montgomery Gentry (Vocal) - If You Ever Stop Loving Me
TTITLE2=Lee Ann Womack (Vocal) - Wrong Girl
TTITLE3=Scotty Emerick (Vocal) - Coast Is Clear
TTITLE4=Cross Canadian Ragweed (Vocal) - Sick And Tired
TTITLE5=Billy Dean (Vocal) - Thank God I'm A Country Boy
TTITLE6=Chris Cagle (Vocal) - I'd Be Lying
TTITLE7=Joe Diffie (Vocal) - Tougher Than Nails
TTITLE8=Julie Roberts (Vocal) - Break Down Here
TTITLE9=Chely Wright (Vocal) - Back Of The Bottom Drawer
TTITLE10=Lonestar - Let's Be Us Again
TTITLE11=Montgomery Gentry - If You Ever Stop Loving Me
TTITLE12=Lee Ann Womack - Wrong Girl
TTITLE13=Scotty Emerick - Coast Is Clear
TTITLE14=Cross Canadian Ragweed - Sick And Tired
TTITLE15=Billy Dean - Thank God I'm A Country Boy
TTITLE16=Chris Cagle - I'd Be Lying
TTITLE17=Joe Diffie - Tougher Than Nails
TTITLE18=Julie Roberts - Break Down Here
TTITLE19=Chely Wright - Back Of The Bottom Drawer
EXTD=
EXTT0=
EXTT1=
EXTT2=
EXTT3=
EXTT4=
EXTT5=
EXTT6=
EXTT7=
EXTT8=
EXTT9=
EXTT10=
EXTT11=
EXTT12=
EXTT13=
EXTT14=
EXTT15=
EXTT16=
EXTT17=
EXTT18=
EXTT19=
PLAYORDER=
